<svg width="6" height="30" viewBox="0 0 6 30" fill="none" xmlns="http://www.w3.org/2000/svg">
<path d="M6 15C6 13.3431 4.65685 12 3 12C1.34315 12 0 13.3431 0 15C0 16.6569 1.34315 18 3 18C4.65685 18 6 16.6569 6 15Z" fill="#BEC6CE"/>
<path d="M6 3.5C6 1.84315 4.65685 0.5 3 0.5C1.34315 0.5 0 1.84315 0 3.5C0 5.15685 1.34315 6.5 3 6.5C4.65685 6.5 6 5.15685 6 3.5Z" fill="#BEC6CE"/>
<path d="M6 26.5C6 24.8431 4.65685 23.5 3 23.5C1.34315 23.5 0 24.8431 0 26.5C0 28.1569 1.34315 29.5 3 29.5C4.65685 29.5 6 28.1569 6 26.5Z" fill="#BEC6CE"/>
</svg>
